<?xml version="1.0" encoding="iso-8859-1"?>
<!-- Generator: Adobe Illustrator 18.1.1, SVG Export Plug-In . SVG Version: 6.00 Build 0)  -->
<svg version="1.1" id="Capa_1" xmlns="http://www.w3.org/2000/svg" xmlns:xlink="http://www.w3.org/1999/xlink" x="0px" y="0px"
	 viewBox="0 0 497 497" style="enable-background:new 0 0 497 497;" xml:space="preserve">
<g>
	<g>
		<path style="fill:#010002;" d="M350.302,323l-60-167c-0.668,0-1-0.333-1-1c0-3.333,1.666-5,5-5c2,0,3.332,1.333,4,4l41,107
			c3.334,6.667,10.668,10,22,10c4,0,6.832-2.833,8.5-8.5c1.666-5.667,2.166-9.5,1.5-11.5l-41-106c-2-12-8.334-23-19-33
			c-10.668-10-22.668-15-36-15h-53c-13.334,0-25.667,5-37,15s-18,21-20,33l-39,106c-1.333,2-1.167,5.833,0.5,11.5
			c1.667,5.667,4.833,8.5,9.5,8.5c12.667,0,20-3.333,22-10l39-108c0.669-2,2.336-3,5-3c2.667,0,4,1.667,4,5v1l-59,167v10
			c0,2,1.5,4.167,4.5,6.5s5.5,3.5,7.5,3.5h38v134c0,5.333,2,10,6,14s8.833,6,14.5,6s10.5-2,14.5-6s6-8.667,6-14V343
			c0-0.667,1.832-1.167,5.5-1.5c3.666-0.333,7.167-0.333,10.5,0c3.332,0.333,5,0.833,5,1.5v133c0,5.333,2,10.167,6,14.5
			s8.666,6.5,14,6.5s10.168-2.167,14.5-6.5s6.5-9.167,6.5-14.5V343h39c2,0,4.332-1.167,7-3.5c2.666-2.333,4-4.5,4-6.5v-2.5v-5V323z"
			/>
		<path style="fill:#010002;" d="M205.296,42.5c0,11.667,4.167,21.667,12.5,30s18.333,12.5,30,12.5s21.5-4.167,29.5-12.5
			s12-18.333,12-30s-4-21.667-12-30S259.468,0,247.798,0c-11.67,0-21.668,4.167-30,12.5C209.463,20.833,205.296,30.833,205.296,42.5
			z"/>
	</g>
</g>
<g>
</g>
<g>
</g>
<g>
</g>
<g>
</g>
<g>
</g>
<g>
</g>
<g>
</g>
<g>
</g>
<g>
</g>
<g>
</g>
<g>
</g>
<g>
</g>
<g>
</g>
<g>
</g>
<g>
</g>
</svg>
